HIERARCHY
ROOT Hips
{
  OFFSET 267.745 86.9975 -272.335
  CHANNELS 6 Xposition Yposition Zposition Zrotation Xrotation Yrotation
  JOINT LeftUpLeg
  {
    OFFSET 8.64259 1.95398 -2.38835
    CHANNELS 3 Zrotation Xrotation Yrotation
    JOINT LeftLeg
    {
      OFFSET 43.7702 0 0
      CHANNELS 3 Zrotation Xrotation Yrotation
      JOINT LeftFoot
      {
        OFFSET 40.6238 0 0
        CHANNELS 3 Zrotation Xrotation Yrotation
        JOINT LeftToeBase
        {
          OFFSET 12.7242 0 0
          CHANNELS 3 Zrotation Xrotation Yrotation
          End Site
          {
            OFFSET 0 0 0
          }
        }
      }
    }
  }
  JOINT RightUpLeg
  {
    OFFSET -8.2249 1.95398 -2.59336
    CHANNELS 3 Zrotation Xrotation Yrotation
    JOINT RightLeg
    {
      OFFSET 43.5653 0 0
      CHANNELS 3 Zrotation Xrotation Yrotation
      JOINT RightFoot
      {
        OFFSET 40.6238 0 0
        CHANNELS 3 Zrotation Xrotation Yrotation
        JOINT RightToeBase
        {
          OFFSET 12.7242 0 0
          CHANNELS 3 Zrotation Xrotation Yrotation
          End Site
          {
            OFFSET 0 0 0
          }
        }
      }
    }
  }
  JOINT Spine
  {
    OFFSET 0.165834 0.87714 6.61349
    CHANNELS 3 Zrotation Xrotation Yrotation
    JOINT Spine1
    {
      OFFSET 7.38963 1.71661e-005 0
      CHANNELS 3 Zrotation Xrotation Yrotation
      JOINT Spine2
      {
        OFFSET 11.9445 1.14441e-005 0
        CHANNELS 3 Zrotation Xrotation Yrotation
        JOINT Spine3
        {
          OFFSET 14.7254 4.19617e-005 0
          CHANNELS 3 Zrotation Xrotation Yrotation
          JOINT Spine4
          {
            OFFSET 10.9679 0 0
            CHANNELS 3 Zrotation Xrotation Yrotation
            JOINT RightShoulder
            {
              OFFSET 2.46616 -1.6653 3.69651
              CHANNELS 3 Zrotation Xrotation Yrotation
              JOINT RightArm
              {
                OFFSET 13.0012 0 0
                CHANNELS 3 Zrotation Xrotation Yrotation
                JOINT RightForeArm
                {
                  OFFSET 28.7848 1.52588e-005 0
                  CHANNELS 3 Zrotation Xrotation Yrotation
                  JOINT RightHand
                  {
                    OFFSET 26.5688 1.52588e-005 0
                    CHANNELS 3 Zrotation Xrotation Yrotation
                    End Site
                    {
                      OFFSET 0 0 0
                    }
                  }
                }
              }
            }
            JOINT LeftShoulder
            {
              OFFSET 2.38034 -1.29275 -3.7523
              CHANNELS 3 Zrotation Xrotation Yrotation
              JOINT LeftArm
              {
                OFFSET 16.3182 6.10352e-005 0
                CHANNELS 3 Zrotation Xrotation Yrotation
                JOINT LeftForeArm
                {
                  OFFSET 27.0901 0 0
                  CHANNELS 3 Zrotation Xrotation Yrotation
                  JOINT LeftHand
                  {
                    OFFSET 24.5451 1.52588e-005 0
                    CHANNELS 3 Zrotation Xrotation Yrotation
                    End Site
                    {
                      OFFSET 0 0 0
                    }
                  }
                }
              }
            }
            JOINT Neck
            {
              OFFSET 5.0226 -0.0266342 0
              CHANNELS 3 Zrotation Xrotation Yrotation
              JOINT Head
              {
                OFFSET 6.69364 2.86102e-005 0
                CHANNELS 3 Zrotation Xrotation Yrotation
                End Site
                {
                  OFFSET 0 0 0
                }
              }
            }
          }
        }
      }
    }
  }
}
MOTION
Frames:	12
Frame Time:	0.0416667
253.385 71.595 -248.417 4.18323 -81.0957 -6.93455 -169.076 48.158 165.721 28.8544 60.1929 -150.085 79.0862 -28.1631 53.1939 23.9122 21.1318 -89.823 176.389 75.0626 50.7049 -38.0598 -55.449 11.4262 67.9125 4.64951 -12.0868 129.517 38.0677 67.0177 -5.84497 0.163099 -87.7381 27.0231 -9.7969 7.80539 15.3631 -9.44505 8.22888 -7.39435 -11.6838 4.48056 12.6183 -11.6838 4.48055 106.37 -33.8991 -73.9894 83.0903 -16.9293 114.236 -54.3448 50.3436 -93.9626 -5.05876 1.86003 -51.1421 -66.6421 -3.42813 132.619 63.3822 44.2502 -151.001 46.7817 -20.8459 -172.637 7.94358 18.1542 116.932 -94.752 -47.6034 15.231 82.8027 -60.9533 -26.6452 
253.551 71.7518 -248.596 4.23514 -81.1302 -6.84185 -169.11 46.512 164.759 28.9998 58.8278 -148.868 78.7454 -28.5777 52.3868 24.5896 19.8994 -88.8102 174.919 74.8133 52.1696 -37.3706 -55.6382 11.1837 67.8165 5.02309 -12.1866 129.015 38.2727 67.5351 -5.84214 0.167329 -87.7324 27.0141 -9.7888 7.81314 15.354 -9.43659 8.23625 -7.40262 -11.6784 4.49052 12.61 -11.6784 4.4905 106.658 -34.282 -73.4825 82.5211 -17.6956 114.009 -54.1359 50.0932 -94.0425 -4.71084 1.69458 -50.7243 -66.6871 -3.37446 132.53 61.3775 46.2761 -149.891 46.2636 -18.4104 -179.028 7.62028 17.5469 116.815 -94.8207 -47.6902 15.216 82.4306 -61.0772 -26.9522 
253.994 72.4686 -249.088 4.38383 -81.2302 -6.57398 -169.065 42.0343 161.693 29.8067 55.3455 -145.277 77.0994 -29.4536 49.713 27.1713 15.6034 -85.7029 169.964 73.6339 57.1406 -34.807 -56.1347 10.3272 67.4311 6.30733 -12.3763 127.686 38.7822 68.8949 -5.83381 0.180257 -87.7159 26.9871 -9.76486 7.83581 15.3267 -9.41169 8.25781 -7.42761 -11.6624 4.51967 12.585 -11.6624 4.51967 107.529 -35.4053 -71.9778 80.8341 -19.9104 113.278 -53.5381 49.3685 -94.2666 -3.64195 1.20566 -49.4905 -66.817 -3.21923 132.271 55.7741 51.1962 -146.445 13.4513 0.225039 -88.8332 6.7063 15.81 116.377 -95.0216 -47.9363 15.1673 81.3759 -61.4257 -27.8267 
254.781 73.0345 -249.929 4.6186 -81.3886 -6.14716 -170.194 35.5907 157.624 31.0769 51.3359 -140.297 72.1592 -28.4787 43.7077 33.66 6.76593 -78.9472 164.692 72.2774 62.3738 -31.6172 -56.9275 9.15331 66.9169 8.22478 -12.5883 125.931 39.3862 70.6718 -5.82011 0.202437 -87.689 26.9408 -9.7257 7.87265 15.2799 -9.37097 8.29281 -7.4705 -11.6361 4.56714 12.5421 -11.6361 4.56715 109.034 -37.2293 -69.4787 78.0241 -23.3997 111.891 -52.5907 48.2232 -94.6214 -1.74357 0.406296 -47.4471 -67.0228 -2.97157 131.858 47.5625 56.7327 -140.681 -39.2231 -2.59042 4.10443 5.20061 12.96 115.49 -95.3468 -48.3088 15.0746 79.7691 -61.9482 -29.1716 
255.97 72.8906 -251.179 4.92902 -81.5975 -5.57786 -172.701 28.9742 152.363 31.499 50.174 -134.502 61.9922 -20.8676 33.8082 48.0681 -6.34202 -65.2183 160.487 71.5063 66.4475 -28.802 -57.9465 7.92843 66.3746 10.543 -12.7386 124.164 39.9212 72.4418 -5.80132 0.234916 -87.6517 26.8731 -9.6721 7.92316 15.2115 -9.31523 8.34082 -7.53359 -11.6002 4.6322 12.4791 -11.6002 4.6322 111.261 -39.6984 -65.9734 74.011 -27.9115 109.587 -51.275 46.7311 -95.1596 1.17226 -0.670204 -44.5521 -67.2943 -2.63908 131.309 38.1521 61.2465 -133.35 -35.1328 -18.6239 -0.0531809 2.8813 8.75247 114.259 -95.7884 -48.7625 14.924 77.7545 -62.5809 -30.8781 
257.45 72.7395 -252.782 5.30543 -81.8486 -4.88181 -175.577 24.1099 143.743 30.3623 55.6636 -127.157 53.2565 -6.29698 25.7784 71.4724 -16.9342 -41.8027 155.449 69.9859 71.3799 -24.5234 -58.9535 6.25278 65.3399 13.8868 -12.4329 122.664 40.3216 73.9305 -5.77809 0.279182 -87.6044 26.7812 -9.60562 7.98718 15.1187 -9.24601 8.40173 -7.6198 -11.5561 4.7142 12.3928 -11.556 4.71419 114.326 -42.7161 -61.4539 68.5956 -33.0949 105.971 -49.4609 44.9848 -96.0534 5.33489 -1.93862 -40.686 -67.6213 -2.22502 130.645 29.1707 64.275 -125.867 -32.6763 -35.1029 -0.0604533 -0.458719 3.0593 113.116 -96.3359 -49.2473 14.7054 75.4551 -63.2585 -32.8496 
259.21 72.6583 -254.767 5.73794 -82.1338 -4.07512 -178.12 21.0099 131.227 25.1739 68.525 -114.542 54.9678 5.95043 21.8868 92.3336 -18.0173 -21.7843 149.547 66.2414 77.292 -16.2449 -59.7467 3.73585 62.8213 19.3682 -10.7891 121.561 40.587 75.0188 -5.752 0.336843 -87.547 26.662 -9.52958 8.06494 14.9984 -9.16667 8.47594 -7.73229 -11.5069 4.81234 12.2804 -11.5069 4.81233 118.328 -46.131 -55.9537 61.4168 -38.47 100.518 -46.8677 43.0808 -97.649 10.9724 -3.20004 -35.5973 -67.9947 -1.72376 129.891 21.9478 66.071 -119.59 -30.8001 -50.8037 -0.0771047 -4.3715 -3.33681 112.654 -96.968 -49.7148 14.4223 72.9635 -63.9204 -35.0114 
261.27 72.7889 -257.177 6.21536 -82.4452 -3.17549 -179.305 16.3293 117.779 -12.5337 80.7812 -65.2186 63.6875 10.6837 17.816 106.233 -17.356 -12.4775 144.321 59.2199 82.6777 -2.03059 -60.2579 0.496906 57.5667 27.3636 -6.63562 120.865 40.7427 75.7026 -5.72678 0.408959 -87.4805 26.5139 -9.45173 8.15705 14.8491 -9.08487 8.56437 -7.87322 -11.4603 4.92478 12.1394 -11.4603 4.92478 123.304 -49.7381 -49.593 51.8723 -43.4152 92.5284 -43.022 41.0409 -100.558 18.2536 -4.03591 -28.8354 -68.4078 -1.11189 129.08 16.9199 67.0784 -115.089 -29.7801 -63.8153 -0.109189 -7.75561 -8.94369 113.154 -97.6349 -50.1303 14.1155 70.3333 -64.5152 -37.3231 
263.908 70.7359 -260.405 6.72652 -82.7758 -2.20064 178.225 9.63654 109.25 -64.9646 76.7362 -0.7215 72.1115 11.9212 13.1105 115.876 -18.7829 -10.293 142.459 60.4994 84.444 -0.0316076 -60.9368 0.0810628 55.7312 30.5113 -5.37133 120.521 40.8172 76.0408 -5.71028 0.495494 -87.4072 26.3381 -9.38848 8.26346 14.6722 -9.01706 8.66775 -8.04234 -11.4319 5.04641 11.9703 -11.4319 5.04642 129.182 -53.3254 -42.5817 38.8624 -47.1027 80.9813 -37.2136 38.5091 -105.786 27.1888 -3.67881 -19.7638 -68.8564 -0.340372 128.258 13.5768 67.6607 -112.029 -29.3934 -73.4253 -0.16753 -10.0506 -13.0162 114.355 -98.2299 -50.493 13.8979 67.5656 -65.0036 -39.7981 
267.124 66.5514 -264.379 7.26156 -83.1196 -1.16687 174.356 2.86692 105.079 -65.0342 69.9441 9.76402 77.9053 12.1416 8.90982 122.069 -22.2238 -12.0152 141.197 64.2172 85.6638 0.0876565 -61.3353 0.158833 53.3848 33.7093 -3.73105 120.453 40.8332 76.1093 -5.71374 0.59574 -87.3321 26.1376 -9.36427 8.38162 14.4707 -8.98774 8.78458 -8.2381 -11.4442 5.16725 11.7745 -11.4442 5.16724 135.819 -56.7403 -35.1607 20.5558 -47.9084 64.4474 -28.563 33.8642 -114.684 37.3562 -0.92116 -7.70443 -69.3339 0.648644 127.486 10.9036 68.0417 -109.566 -29.3429 -80.3177 -0.282601 -11.4263 -15.7855 115.88 -98.5882 -50.8387 13.946 64.6262 -65.3582 -42.4886 
270.747 61.6317 -268.749 7.81134 -83.4719 -0.0897525 170.201 -4.10771 102.884 -53.1489 64.748 8.69171 80.8568 10.9445 5.35661 125.067 -26.482 -15.5901 140.37 68.4191 86.5145 0.150065 -61.3974 0.283467 50.322 37.1608 -1.5109 120.586 40.8072 75.9816 -5.74162 0.710247 -87.2538 25.9118 -9.38691 8.51661 14.2442 -9.00449 8.92031 -8.46149 -11.5062 5.28974 11.5511 -11.5062 5.28974 143.087 -59.8756 -27.4736 -4.01609 -41.4358 43.0163 -16.7154 22.1488 -127.826 47.1575 5.77723 8.00578 -69.8397 1.89289 126.794 8.34417 68.2943 -107.236 -29.5818 -85.3518 -0.584572 -12.2119 -17.6884 117.483 -98.6407 -51.1621 14.3233 61.5062 -65.5543 -45.4187 
274.652 55.8321 -273.243 8.36701 -83.8284 1.01523 166.226 -11.7355 101.517 -38.0656 60.3393 5.3464 81.6357 8.82576 2.60878 125.651 -30.4549 -19.7483 140.551 72.8686 86.5356 0.0622318 -61.1025 0.061243 46.4522 40.8714 1.38397 120.852 40.7515 75.7218 -5.8868 0.831108 -87.2843 25.6791 -9.70003 8.50734 14.0139 -9.31773 8.92508 -8.7141 -11.8015 5.18375 11.2986 -11.8015 5.18375 150.784 -63.216 -20.0122 -31.2932 -18.9382 23.4534 -2.62095 -6.26728 -140.682 52.4486 16.6748 27.7827 -70.17 3.23693 126.793 -0.932987 68.6022 -98.901 153.822 -88.7062 -177.905 -12.6092 -18.9802 119.037 -96.6828 -52.2234 16.6928 57.9225 -65.6938 -48.9057 
